<?xml version="1.0" encoding="UTF-8"?>
<svg width="48px" height="48px" viewBox="0 0 48 48" version="1.1" xmlns="http://www.w3.org/2000/svg" xmlns:xlink="http://www.w3.org/1999/xlink">
    <title>Product_Icon-Red_Hat-Dependency_Analytics-RGB</title>
    <g id="Page-2" stroke="none" stroke-width="1" fill="none" fill-rule="evenodd">
        <g id="Learn-more-temp-page" transform="translate(-468.000000, -480.000000)" fill-rule="nonzero">
            <g id="Card" transform="translate(290.000000, 444.000000)">
                <g id="Group-1" transform="translate(91.000000, 36.000000)">
                    <g id="Product_Icon-Red_Hat-Dependency_Analytics-RGB" transform="translate(87.000000, 0.000000)">
                        <path d="M12,0 C5.372583,0 0,5.372583 0,12 L0,36 C0,42.627417 5.372583,48 12,48 L36,48 C42.627417,48 48,42.627417 48,36 L48,12 C48,5.372583 42.627417,0 36,0 L12,0 Z" id="Path"></path>
                        <path d="M36,1.66666667 C41.704268,1.67311809 46.3268819,6.29573199 46.3333333,12 L46.3333333,36 C46.3268819,41.704268 41.704268,46.3268819 36,46.3333333 L12,46.3333333 C6.29573199,46.3268819 1.67311809,41.704268 1.66666667,36 L1.66666667,12 C1.67311809,6.29573199 6.29573199,1.67311809 12,1.66666667 L36,1.66666667 M36,0 L12,0 C5.372583,0 0,5.372583 0,12 L0,36 C0,42.627417 5.372583,48 12,48 L36,48 C42.627417,48 48,42.627417 48,36 L48,12 C48,5.372583 42.627417,0 36,0 L36,0 Z" id="Shape" fill="#EE0000"></path>
                        <path d="M24,38.1667466 C17.6235366,38.1595177 12.4560755,32.992343 12.4485733,26.61588 L12.4485733,14.2786667 C12.4485733,13.8852609 12.723945,13.5455268 13.10872,13.4635733 L23.8268267,11.1849067 C23.9410858,11.1614667 24.0589142,11.1614667 24.1731733,11.1849067 L34.89128,13.4635733 C35.276055,13.5455268 35.5514267,13.8852609 35.5514267,14.2786667 L35.5514267,26.6159067 C35.5514267,27.6039699 35.4256822,28.5880162 35.17708,29.5442933 C35.1017208,29.8324876 34.8783362,30.0585864 34.591073,30.1374205 C34.3038099,30.2162546 33.9963103,30.1358473 33.7844064,29.9264872 C33.5725025,29.717127 33.4883874,29.4106209 33.5637467,29.1224267 C33.7770771,28.304005 33.8849375,27.4616749 33.8847067,26.6159067 L33.8847067,14.95312 L24,12.85156 L14.11524,14.95312 L14.11524,26.61588 C14.1214275,32.0724135 18.5434661,36.4941658 24,36.5 C26.2341688,36.5090078 28.4039552,35.7521209 30.1477867,34.3554667 C30.5081698,34.0707335 31.0309762,34.131175 31.3168853,34.490626 C31.6027945,34.8500769 31.5440615,35.3730779 31.1855467,35.66016 C29.1469685,37.291875 26.6111682,38.1764285 24,38.1667466 L24,38.1667466 Z" id="Path" fill="#EE0000"></path>
                        <path d="M33.92252,32.7434933 L28.89152,27.71248 C29.713555,26.6490434 30.16177,25.3441037 30.1666667,24 C30.1666667,20.594244 27.405756,17.8333333 24,17.8333333 C20.594244,17.8333333 17.8333333,20.594244 17.8333333,24 C17.8333333,27.405756 20.594244,30.1666667 24,30.1666667 C25.3441106,30.1618108 26.6490631,29.7135914 27.71248,28.89152 L32.7441467,33.9231733 C33.0699063,34.2485721 33.5977745,34.2482796 33.9231733,33.92252 C34.2485721,33.5967604 34.2482796,33.0688921 33.92252,32.7434933 L33.92252,32.7434933 Z M19.5,24 C19.5,21.5147186 21.5147186,19.5 24,19.5 C26.4852814,19.5 28.5,21.5147186 28.5,24 C28.5,26.4852814 26.4852814,28.5 24,28.5 C21.5158427,28.4972884 19.5027116,26.4841573 19.5,24 L19.5,24 Z" id="Shape" fill="#EE0000"></path>
                    </g>
                </g>
            </g>
        </g>
    </g>
</svg>