<?xml version="1.0" encoding="UTF-8"?>
<svg width="32.8888889px" height="48px" viewBox="0 0 32.8888889 48" version="1.1" xmlns="http://www.w3.org/2000/svg" xmlns:xlink="http://www.w3.org/1999/xlink">
    <title>Icon-Red_Hat-Clipboard_Checklist-A-Red-RGB</title>
    <g id="Page-2" stroke="none" stroke-width="1" fill="none" fill-rule="evenodd">
        <g id="Learn-more-temp-page" transform="translate(-880.000000, -480.000000)" fill="#EE0000" fill-rule="nonzero">
            <g id="Card" transform="translate(290.000000, 444.000000)">
                <g id="Group-2" transform="translate(495.000000, 36.000000)">
                    <g id="Icon-Red_Hat-Clipboard_Checklist-A-Red-RGB" transform="translate(95.000000, 0.000000)">
                        <path d="M23.8152958,29.6738817 C23.2223667,29.6738817 22.7417027,30.1545457 22.7417027,30.7474747 L22.7417027,34.2972583 L11.036075,34.2972583 L11.036075,22.5916306 L19.1919192,22.5916306 C19.7848483,22.5916306 20.2655123,22.1109666 20.2655123,21.5180375 C20.2655123,20.9251084 19.7848483,20.4444444 19.1919192,20.4444444 L9.96248196,20.4444444 C9.36955288,20.4444444 8.88888889,20.9251084 8.88888889,21.5180375 L8.88888889,35.3708514 C8.88888889,35.9637805 9.36955288,36.4444444 9.96248196,36.4444444 L23.8152958,36.4444444 C24.4082249,36.4444444 24.8888889,35.9637805 24.8888889,35.3708514 L24.8888889,30.7474747 C24.8888889,30.1545457 24.4082249,29.6738817 23.8152958,29.6738817 Z" id="Path"></path>
                        <path d="M15.3065966,27.9013595 C15.0446436,27.5751389 14.6138876,27.4244649 14.1989637,27.5139209 C13.7840398,27.6033769 13.4586154,27.9170806 13.3621774,28.3205689 C13.2657394,28.7240573 13.4154097,29.1456931 13.7470352,29.4047506 L16.0951389,31.6940053 C16.5239755,32.1019982 17.2083405,32.1019982 17.6371771,31.6940053 L24.646442,24.8604093 C24.9968952,24.4339914 24.9639993,23.8192224 24.5699377,23.4306711 C24.175876,23.0421198 23.5457153,23.0031041 23.1044037,23.3399342 L16.866158,29.4218346 L15.3065966,27.9013595 Z" id="Path"></path>
                        <path d="M31.8290598,7.11111111 L24.991453,7.11111111 C24.4061256,7.11111111 23.9316239,7.5793487 23.9316239,8.15694903 L23.9316239,10.1474147 L8.95726496,10.1474147 L8.95726496,8.15694903 C8.95726496,7.5793487 8.48276332,7.11111111 7.8974359,7.11111111 L1.05982906,7.11111111 C0.474501633,7.11111111 0,7.5793487 0,8.15694903 L0,46.9541621 C0,47.5317624 0.474501633,48 1.05982906,48 L31.8290598,48 C32.110144,48 32.3797156,47.8898138 32.5784721,47.6936812 C32.7772286,47.4975485 32.8888889,47.2315355 32.8888889,46.9541621 L32.8888889,8.15694903 C32.8888889,7.87957557 32.7772286,7.6135626 32.5784721,7.41742995 C32.3797156,7.22129729 32.110144,7.11111111 31.8290598,7.11111111 L31.8290598,7.11111111 Z M30.7692308,45.9083242 L2.11965812,45.9083242 L2.11965812,9.20278695 L6.83760684,9.20278695 L6.83760684,11.210121 C6.83760684,11.7877213 7.31210847,12.2559589 7.8974359,12.2559589 L24.991453,12.2559589 C25.5767804,12.2559589 26.0512821,11.7877213 26.0512821,11.210121 L26.0512821,9.20278695 L30.7692308,9.20278695 L30.7692308,45.9083242 Z" id="Shape"></path>
                        <path d="M6.37395099,5.31615514 L11.5602551,5.31615514 C12.0452605,5.37847405 12.5103337,5.10480435 12.6847936,4.65442693 C13.2691792,3.10621072 14.7684934,2.07925645 16.4444444,2.07925645 C18.1203955,2.07925645 19.6197097,3.10621072 20.2040953,4.65442693 C20.3632496,5.12517555 20.8506471,5.40776407 21.3454179,5.31615514 L26.5149379,5.31615514 C27.0896552,5.31615514 27.5555556,4.85694313 27.5555556,4.29047641 C27.5555556,3.7240097 27.0896552,3.26479769 26.5149379,3.26479769 L21.8657268,3.26479769 C20.8228619,1.26051641 18.7297413,0 16.4444444,0 C14.1591476,0 12.066027,1.26051641 11.0231621,3.26479769 L6.37395099,3.26479769 C5.79923373,3.26479769 5.33333333,3.7240097 5.33333333,4.29047641 C5.33333333,4.85694313 5.79923373,5.31615514 6.37395099,5.31615514 Z" id="Path"></path>
                        <circle id="Oval" cx="16.8888889" cy="4.44444444" r="1"></circle>
                    </g>
                </g>
            </g>
        </g>
    </g>
</svg>