<?xml version="1.0" encoding="UTF-8"?>
<svg width="41px" height="48px" viewBox="0 0 41 48" version="1.1" xmlns="http://www.w3.org/2000/svg" xmlns:xlink="http://www.w3.org/1999/xlink">
    <title>Icon-Red_Hat-Vulnerability-A-Red-RGB</title>
    <g id="Page-2" stroke="none" stroke-width="1" fill="none" fill-rule="evenodd">
        <g id="Learn-more-temp-page" transform="translate(-1278.000000, -480.000000)" fill="#EE0000" fill-rule="nonzero">
            <g id="Card" transform="translate(290.000000, 444.000000)">
                <g id="Group-3" transform="translate(864.000000, 36.000000)">
                    <g id="Icon-Red_Hat-Vulnerability-A-Red-RGB" transform="translate(124.000000, 0.000000)">
                        <path d="M20.992,34 C20.4415553,34.0092505 19.9999306,34.4843027 20,35.0670866 C20.063837,35.6002799 20.4923013,36 21,36 C21.5076987,36 21.936163,35.6002799 22,35.0670866 C22,34.477751 21.548703,34 20.992,34 Z" id="Path"></path>
                        <path d="M21,29 C20.7347835,29 20.4804296,28.8868896 20.2928932,28.6855519 C20.1053568,28.4842141 20,28.2111415 20,27.9264069 L20,14.0735931 C20,13.480664 20.4477153,13 21,13 C21.5522847,13 22,13.480664 22,14.0735931 L22,27.9264069 C22,28.2111415 21.8946432,28.4842141 21.7071068,28.6855519 C21.5195704,28.8868896 21.2652165,29 21,29 L21,29 Z" id="Path"></path>
                        <path d="M20.5,48 C9.18241858,47.9902859 0.0101334473,38.8303489 0.000198990145,27.5280037 L0.000198990145,5.22374614 C-0.00974881074,4.70383784 0.354293826,4.25125202 0.864846956,4.14905442 L20.2706586,0.0264665262 C20.4215112,-0.00882217541 20.5784888,-0.00882217541 20.7293414,0.0264665262 L40.135153,4.14905442 C40.6457062,4.25125202 41.0097488,4.70383784 40.999801,5.22374614 L40.999801,27.5280037 C40.9898666,38.8303489 31.8175814,47.9902859 20.5,48 L20.5,48 Z M2.18797048,6.10464098 L2.18797048,27.5280037 C2.18797048,37.6278432 10.3865454,45.8153808 20.5,45.8153808 C30.6134546,45.8153808 38.8120295,37.6278432 38.8120295,27.5280037 L38.8120295,6.10464098 L20.5,2.22870365 L2.18797048,6.10464098 Z" id="Shape"></path>
                    </g>
                </g>
            </g>
        </g>
    </g>
</svg>